<svg width="71" height="28" viewBox="0 0 71 28" fill="none" xmlns="http://www.w3.org/2000/svg">
<path d="M19.127 22V0.862305H14.7031V9.44629H5.18164V0.862305H0.757812V22H5.18164V13.0938H14.7031V22H19.127ZM24.2832 27.8154C28.2969 27.8154 30.2598 26.3799 31.6074 22.3516L37.0127 6.29688H32.501L29.1611 18.5723H29.0879L25.748 6.29688H21.0459L26.5098 22.0146C26.5391 22.0732 26.3779 22.7031 26.3779 22.7617C26.085 24.0068 25.3086 24.5049 23.7412 24.5049C23.5801 24.5049 22.8037 24.5049 22.6719 24.4756V27.7715C22.8037 27.8008 24.1367 27.8154 24.2832 27.8154Z" fill="white"/>
<path d="M47.7354 6.04785C45.4648 6.04785 43.7217 7.19043 42.8721 9.03613H42.7842V6.29688H38.5654V27.127H42.8428V19.3633H42.9307C43.7656 21.1357 45.5234 22.249 47.8086 22.249C51.7344 22.249 54.166 19.2021 54.166 14.1484C54.166 9.08008 51.7197 6.04785 47.7354 6.04785ZM46.2998 18.8066C44.2051 18.8066 42.8281 16.9902 42.8281 14.1484C42.8281 11.3359 44.2051 9.47559 46.2998 9.47559C48.4385 9.47559 49.7861 11.3066 49.7861 14.1484C49.7861 17.0049 48.4385 18.8066 46.2998 18.8066ZM63.4238 9.12402C65.3281 9.12402 66.6318 10.501 66.7197 12.5078H60.0547C60.2012 10.5449 61.5488 9.12402 63.4238 9.12402ZM66.7783 17.1953C66.3828 18.3965 65.1816 19.1729 63.6143 19.1729C61.4316 19.1729 60.0107 17.6348 60.0107 15.3936V15.1299H70.8359V13.8262C70.8359 9.05078 67.9502 5.95996 63.3799 5.95996C58.7363 5.95996 55.8066 9.21191 55.8066 14.2217C55.8066 19.2461 58.707 22.3369 63.541 22.3369C67.4229 22.3369 70.2354 20.2715 70.7041 17.1953H66.7783Z" fill="#2886EB"/>
</svg>
